<svg id="visual" viewBox="0 0 960 540" width="960" height="540" xmlns="http://www.w3.org/2000/svg" xmlns:xlink="http://www.w3.org/1999/xlink" version="1.1"><rect x="0" y="0" width="960" height="540" fill="#002233"></rect><path d="M0 406L22.8 404.8C45.7 403.7 91.3 401.3 137 389.3C182.7 377.3 228.3 355.7 274 353.7C319.7 351.7 365.3 369.3 411.2 372.2C457 375 503 363 548.8 354C594.7 345 640.3 339 686 341.8C731.7 344.7 777.3 356.3 823 362.2C868.7 368 914.3 368 937.2 368L960 368L960 541L937.2 541C914.3 541 868.7 541 823 541C777.3 541 731.7 541 686 541C640.3 541 594.7 541 548.8 541C503 541 457 541 411.2 541C365.3 541 319.7 541 274 541C228.3 541 182.7 541 137 541C91.3 541 45.7 541 22.8 541L0 541Z" fill="#0066FF" stroke-linecap="round" stroke-linejoin="miter"></path></svg>