<svg id="visual" viewBox="0 0 900 600" width="900" height="600" xmlns="http://www.w3.org/2000/svg" xmlns:xlink="http://www.w3.org/1999/xlink" version="1.1"><rect x="0" y="0" width="900" height="600" fill="#104059"></rect><path d="M0 394L21.5 396.3C43 398.7 86 403.3 128.8 414.5C171.7 425.7 214.3 443.3 257.2 450.8C300 458.3 343 455.7 385.8 457C428.7 458.3 471.3 463.7 514.2 459.2C557 454.7 600 440.3 642.8 426.7C685.7 413 728.3 400 771.2 405.3C814 410.7 857 434.3 878.5 446.2L900 458L900 601L878.5 601C857 601 814 601 771.2 601C728.3 601 685.7 601 642.8 601C600 601 557 601 514.2 601C471.3 601 428.7 601 385.8 601C343 601 300 601 257.2 601C214.3 601 171.7 601 128.8 601C86 601 43 601 21.5 601L0 601Z" fill="#50415c" stroke-linecap="round" stroke-linejoin="miter"></path></svg>